<?xml version="1.0" encoding="utf-8"?>
<!-- Generator: Adobe Illustrator 26.3.1, SVG Export Plug-In . SVG Version: 6.00 Build 0)  -->
<svg version="1.1" id="Livello_1" xmlns="http://www.w3.org/2000/svg" xmlns:xlink="http://www.w3.org/1999/xlink" x="0px" y="0px"
	 viewBox="0 0 275 45" style="enable-background:new 0 0 275 45;" xml:space="preserve">
<style type="text/css">
	.st0{fill:#999999;}
	.st1{fill:#FFFFFF;}
</style>
<rect x="179.307" y="2.5" class="st0" width="1" height="40"/>
<path class="st1" d="M202.358,16.9l-2.513,8l-2.57-8h-1.119l-2.391,11.884h2.034l1.281-6.4l2.392,6.558h0.754l2.391-6.558l1.232,6.4
	h2.042L203.468,16.9H202.358z"/>
<path class="st1" d="M213.982,25.987c-0.567,0.752-1.471,1.172-2.411,1.119c-0.843,0.03-1.633-0.41-2.051-1.143
	c-0.523-0.991-0.765-2.107-0.7-3.226c-0.055-1.067,0.207-2.126,0.753-3.044c0.468-0.736,1.293-1.167,2.164-1.131
	c2.054,0,3.081,1.392,3.081,4.175c0.076,1.144-0.216,2.283-0.832,3.25 M211.736,16.687c-1.449-0.048-2.833,0.605-3.717,1.755
	c-0.945,1.228-1.436,2.745-1.389,4.293c-0.091,1.623,0.358,3.231,1.277,4.572c0.874,1.125,2.245,1.75,3.668,1.67
	c1.527,0.088,3.009-0.534,4.016-1.686c1.001-1.301,1.503-2.917,1.415-4.556c0.099-1.601-0.381-3.184-1.354-4.459
	C214.657,17.177,213.215,16.592,211.736,16.687"/>
<path class="st1" d="M222.438,24.925L219.69,16.9h-2.319l4.443,12.039h1.159l4.637-12.038h-2.27L222.438,24.925z"/>
<path class="st1" d="M229.009,28.776h7.491v-1.873h-5.383v-3.559h3.923v-1.791h-3.923v-2.78h5.475V16.9h-7.58L229.009,28.776z"/>
<path class="st1" d="M244.066,23.076c-0.52-0.435-1.099-0.797-1.718-1.074c-1.509-0.733-2.263-1.442-2.262-2.125
	c-0.014-0.375,0.131-0.738,0.4-1c0.311-0.273,0.718-0.411,1.131-0.385c0.846,0.008,1.667,0.286,2.343,0.794l0.641-1.815
	c-0.895-0.585-1.958-0.856-3.024-0.771c-0.948-0.038-1.874,0.287-2.59,0.909c-0.659,0.574-1.028,1.411-1.009,2.284
	c-0.006,0.461,0.08,0.919,0.255,1.346c0.164,0.399,0.414,0.757,0.73,1.05c0.563,0.451,1.181,0.83,1.839,1.127
	c0.675,0.291,1.286,0.711,1.8,1.236c0.275,0.325,0.43,0.734,0.437,1.16c0,0.867-0.619,1.3-1.856,1.3
	c-0.89-0.029-1.749-0.335-2.456-0.876l-0.778,1.889c0.895,0.573,1.938,0.872,3,0.859c1.095,0.058,2.176-0.272,3.052-0.932
	c0.733-0.568,1.155-1.448,1.138-2.375c0.007-0.499-0.087-0.994-0.276-1.455c-0.182-0.434-0.454-0.824-0.8-1.143"/>
<rect x="246.996" y="16.901" class="st1" width="2.108" height="11.875"/>
<path class="st1" d="M258.441,25.987c-0.566,0.752-1.471,1.172-2.411,1.119c-0.843,0.03-1.633-0.41-2.051-1.143
	c-0.522-0.992-0.764-2.107-0.7-3.226c-0.054-1.067,0.208-2.126,0.754-3.044c0.468-0.736,1.293-1.167,2.164-1.131
	c2.054,0,3.081,1.392,3.081,4.175c0.076,1.144-0.216,2.283-0.832,3.25 M256.197,16.687c-1.449-0.048-2.833,0.605-3.717,1.755
	c-0.945,1.228-1.436,2.745-1.389,4.293c-0.091,1.623,0.357,3.231,1.276,4.572c0.875,1.125,2.245,1.749,3.668,1.67
	c1.528,0.088,3.011-0.534,4.018-1.686c1-1.301,1.502-2.917,1.414-4.556c0.099-1.601-0.381-3.184-1.354-4.459
	C259.118,17.177,257.676,16.592,256.197,16.687"/>
<path class="st1" d="M270.032,16.9v7.166l-5.61-7.166h-1.013v11.884h2.027v-7.36l5.763,7.515h0.859V16.9H270.032z"/>
<path class="st1" d="M196.358,32.848c-0.012-0.012-0.027-0.021-0.043-0.026c-0.018-0.005-0.036-0.008-0.055-0.008h-0.208
	c-0.029,0-0.057,0.003-0.085,0.01c-0.024,0.008-0.046,0.019-0.066,0.035c-0.022,0.017-0.04,0.039-0.054,0.063
	c-0.019,0.032-0.034,0.065-0.046,0.1l-0.724,1.756h-0.009l-0.7-1.762c-0.01-0.031-0.024-0.061-0.041-0.089
	c-0.014-0.025-0.034-0.046-0.057-0.062c-0.024-0.017-0.051-0.029-0.08-0.035c-0.035-0.008-0.071-0.012-0.107-0.012h-0.2
	c-0.034,0-0.068,0.012-0.094,0.034c-0.03,0.03-0.045,0.071-0.041,0.113v2.237c0,0.009,0.002,0.018,0.007,0.026
	c0.006,0.009,0.015,0.015,0.025,0.018c0.017,0.006,0.034,0.01,0.051,0.012c0.025,0.004,0.051,0.005,0.077,0.005
	s0.053-0.001,0.079-0.005c0.017-0.002,0.034-0.006,0.051-0.012c0.011-0.003,0.02-0.009,0.027-0.018
	c0.005-0.008,0.008-0.017,0.008-0.026v-2.124l0,0l0.821,2.129c0.003,0.007,0.008,0.014,0.014,0.02
	c0.009,0.007,0.019,0.012,0.03,0.015c0.015,0.005,0.031,0.009,0.047,0.011c0.023,0.001,0.045,0.001,0.068,0h0.064
	c0.016-0.002,0.032-0.005,0.047-0.01c0.011-0.003,0.021-0.009,0.03-0.017c0.007-0.006,0.012-0.013,0.015-0.021l0.858-2.129l0,0
	v2.119c0,0.009,0.003,0.018,0.008,0.026c0.006,0.009,0.016,0.015,0.026,0.018c0.016,0.006,0.033,0.01,0.05,0.012
	c0.025,0.004,0.051,0.005,0.076,0.005c0.026,0,0.053-0.001,0.079-0.005c0.017-0.002,0.033-0.006,0.049-0.012
	c0.011-0.003,0.02-0.009,0.027-0.018c0.005-0.008,0.008-0.017,0.008-0.026V32.96c0.001-0.023-0.004-0.046-0.012-0.068
	c-0.007-0.017-0.017-0.032-0.03-0.045"/>
<path class="st1" d="M201.332,34.399c-0.022,0.11-0.065,0.216-0.127,0.31c-0.058,0.09-0.138,0.164-0.232,0.214
	c-0.11,0.056-0.233,0.083-0.357,0.079c-0.123,0.004-0.245-0.021-0.356-0.073c-0.092-0.045-0.17-0.114-0.227-0.2
	c-0.059-0.095-0.1-0.201-0.121-0.311c-0.025-0.132-0.036-0.266-0.035-0.4c0-0.124,0.012-0.248,0.038-0.369
	c0.023-0.11,0.066-0.214,0.128-0.307c0.059-0.088,0.139-0.16,0.232-0.211c0.109-0.056,0.23-0.083,0.352-0.079
	c0.122-0.004,0.243,0.021,0.353,0.073c0.092,0.046,0.171,0.115,0.228,0.2c0.06,0.094,0.101,0.199,0.122,0.308
	c0.025,0.127,0.038,0.256,0.037,0.385c0,0.126-0.012,0.251-0.037,0.374 M201.447,33.092c-0.091-0.104-0.205-0.185-0.333-0.236
	c-0.309-0.11-0.648-0.107-0.955,0.008c-0.134,0.057-0.252,0.144-0.347,0.254c-0.097,0.117-0.168,0.254-0.209,0.4
	c-0.048,0.17-0.072,0.346-0.069,0.523c-0.003,0.179,0.018,0.358,0.063,0.532c0.037,0.142,0.105,0.274,0.2,0.387
	c0.089,0.106,0.202,0.188,0.331,0.239c0.151,0.057,0.312,0.085,0.474,0.081c0.167,0.003,0.332-0.027,0.487-0.089
	c0.135-0.056,0.254-0.144,0.347-0.256c0.096-0.118,0.167-0.254,0.208-0.4c0.048-0.173,0.071-0.352,0.069-0.532
	c0.002-0.176-0.019-0.352-0.065-0.523c-0.038-0.141-0.106-0.273-0.2-0.385"/>
<path class="st1" d="M206.073,34.746c-0.023,0.05-0.058,0.094-0.1,0.129c-0.043,0.035-0.093,0.062-0.146,0.078
	c-0.063,0.018-0.128,0.027-0.193,0.026h-0.469v-0.856h0.386c0.085-0.002,0.17,0.008,0.253,0.029
	c0.061,0.016,0.118,0.046,0.167,0.086c0.044,0.037,0.079,0.085,0.1,0.139c0.024,0.061,0.036,0.126,0.035,0.192
	c0.001,0.061-0.011,0.122-0.035,0.178 M205.165,33.078h0.334c0.075-0.002,0.15,0.006,0.223,0.026
	c0.051,0.014,0.098,0.04,0.137,0.077c0.036,0.033,0.062,0.075,0.077,0.121c0.017,0.051,0.025,0.105,0.024,0.159
	c0,0.052-0.008,0.104-0.023,0.154c-0.015,0.048-0.04,0.092-0.074,0.129c-0.036,0.038-0.08,0.069-0.128,0.089
	c-0.064,0.024-0.132,0.035-0.2,0.033h-0.367L205.165,33.078z M206.307,34.142c-0.042-0.051-0.093-0.094-0.15-0.127
	c-0.058-0.033-0.121-0.056-0.187-0.069c0.051-0.022,0.098-0.051,0.14-0.086c0.039-0.034,0.073-0.074,0.1-0.119
	c0.027-0.045,0.048-0.094,0.061-0.145c0.014-0.054,0.021-0.11,0.021-0.166c0.001-0.089-0.015-0.177-0.048-0.259
	c-0.029-0.076-0.077-0.142-0.139-0.194c-0.068-0.056-0.147-0.097-0.232-0.121c-0.116-0.031-0.237-0.044-0.357-0.041h-0.553
	c-0.03,0-0.059,0.011-0.082,0.03c-0.028,0.025-0.042,0.062-0.039,0.1v2.17c-0.003,0.038,0.011,0.075,0.039,0.1
	c0.023,0.019,0.052,0.03,0.082,0.03h0.636c0.081,0.001,0.163-0.005,0.243-0.019c0.069-0.013,0.136-0.032,0.2-0.059
	c0.06-0.026,0.116-0.059,0.167-0.1c0.049-0.038,0.092-0.084,0.127-0.135c0.036-0.054,0.063-0.112,0.082-0.174
	c0.02-0.069,0.03-0.14,0.029-0.211c0.001-0.078-0.012-0.155-0.037-0.228c-0.023-0.065-0.057-0.126-0.1-0.18"/>
<path class="st1" d="M209.847,32.818c-0.016-0.005-0.032-0.009-0.049-0.012c-0.026-0.002-0.053-0.002-0.079,0
	c-0.025-0.002-0.05-0.002-0.075,0c-0.017,0.003-0.034,0.007-0.051,0.012c-0.011,0.003-0.02,0.009-0.027,0.018
	c-0.006,0.007-0.008,0.017-0.008,0.026v2.335c0,0.009,0.003,0.019,0.007,0.027c0.007,0.008,0.016,0.014,0.026,0.017
	c0.017,0.006,0.034,0.01,0.051,0.012c0.052,0.007,0.104,0.007,0.156,0c0.017-0.002,0.033-0.006,0.049-0.012
	c0.01-0.003,0.02-0.009,0.026-0.017c0.005-0.008,0.008-0.017,0.008-0.027v-2.335c0-0.009-0.003-0.018-0.008-0.026
	C209.866,32.827,209.857,32.821,209.847,32.818"/>
<path class="st1" d="M214.382,35c-0.005-0.01-0.012-0.019-0.021-0.025c-0.008-0.006-0.019-0.009-0.029-0.008h-0.873v-2.1
	c0-0.009-0.002-0.018-0.007-0.026c-0.007-0.009-0.016-0.015-0.026-0.018c-0.016-0.006-0.034-0.009-0.051-0.011
	c-0.026-0.004-0.052-0.006-0.078-0.006s-0.052,0.002-0.077,0.006c-0.017,0.002-0.035,0.005-0.051,0.011
	c-0.011,0.003-0.02,0.009-0.026,0.018c-0.006,0.008-0.008,0.017-0.008,0.026v2.249c-0.003,0.038,0.012,0.075,0.04,0.1
	c0.023,0.019,0.052,0.029,0.081,0.029h1.076c0.01,0.001,0.021-0.002,0.029-0.008c0.009-0.007,0.016-0.016,0.021-0.026
	c0.006-0.014,0.01-0.028,0.012-0.043c0.001-0.021,0.001-0.042,0-0.063c0.001-0.021,0.001-0.043,0-0.064
	C214.392,35.027,214.388,35.013,214.382,35"/>
<path class="st1" d="M217.699,32.818c-0.016-0.005-0.033-0.009-0.05-0.012c-0.026-0.002-0.053-0.002-0.079,0
	c-0.025-0.002-0.049-0.002-0.074,0c-0.017,0.003-0.034,0.007-0.051,0.012c-0.011,0.003-0.021,0.009-0.028,0.018
	c-0.006,0.008-0.008,0.017-0.008,0.026v2.335c0,0.01,0.003,0.019,0.008,0.027c0.007,0.008,0.016,0.014,0.026,0.017
	c0.017,0.006,0.034,0.01,0.051,0.012c0.052,0.007,0.104,0.007,0.156,0c0.017-0.002,0.034-0.006,0.05-0.012
	c0.01-0.003,0.019-0.009,0.025-0.017c0.005-0.008,0.008-0.017,0.008-0.027v-2.335C217.734,32.841,217.72,32.823,217.699,32.818"/>
<path class="st1" d="M222.543,32.845c-0.004-0.01-0.011-0.019-0.02-0.025c-0.008-0.004-0.018-0.007-0.027-0.007h-1.688
	c-0.009,0-0.019,0.002-0.027,0.007c-0.009,0.006-0.016,0.015-0.02,0.025c-0.006,0.014-0.01,0.029-0.012,0.044
	c-0.004,0.021-0.005,0.042-0.005,0.063s0.001,0.042,0.005,0.062c0.002,0.015,0.006,0.029,0.012,0.042
	c0.004,0.01,0.011,0.018,0.02,0.024c0.008,0.005,0.017,0.008,0.027,0.008h0.685v2.109c0,0.009,0.002,0.018,0.007,0.026
	c0.007,0.009,0.016,0.015,0.027,0.018c0.017,0.006,0.034,0.01,0.052,0.012c0.025,0.004,0.051,0.005,0.076,0.005
	c0.026,0,0.053-0.001,0.079-0.005c0.017-0.002,0.034-0.006,0.05-0.012c0.01-0.003,0.019-0.009,0.026-0.018
	c0.005-0.008,0.007-0.017,0.007-0.026v-2.109h0.685c0.01,0,0.019-0.003,0.027-0.008c0.009-0.006,0.016-0.014,0.02-0.024
	c0.007-0.013,0.011-0.027,0.012-0.042c0.001-0.021,0.001-0.041,0-0.062c0.001-0.021,0.001-0.042,0-0.063
	c-0.002-0.015-0.006-0.03-0.012-0.044"/>
<path class="st1" d="M227.131,32.807c-0.035-0.004-0.071-0.006-0.106-0.005c-0.027-0.002-0.053-0.002-0.08,0
	c-0.017,0.001-0.034,0.005-0.051,0.01c-0.011,0.004-0.021,0.011-0.028,0.02c-0.008,0.009-0.013,0.02-0.016,0.031l-0.338,0.7
	c-0.032,0.068-0.063,0.139-0.093,0.209s-0.061,0.143-0.089,0.215l0,0l-0.1-0.221c-0.031-0.073-0.062-0.143-0.093-0.209l-0.336-0.7
	c-0.006-0.011-0.013-0.021-0.02-0.031c-0.009-0.009-0.019-0.015-0.031-0.019c-0.018-0.005-0.037-0.008-0.056-0.01
	c-0.03-0.002-0.061-0.002-0.091,0c-0.041,0-0.074,0-0.1,0c-0.019,0-0.037,0.006-0.052,0.017c-0.009,0.01-0.013,0.024-0.009,0.037
	c0.005,0.024,0.013,0.047,0.025,0.068l0.689,1.373v0.9c0,0.009,0.002,0.019,0.007,0.027c0.007,0.009,0.016,0.015,0.027,0.018
	c0.016,0.005,0.033,0.009,0.05,0.011c0.026,0.004,0.053,0.005,0.079,0.005c0.025,0,0.051-0.001,0.076-0.005
	c0.017-0.002,0.034-0.006,0.051-0.011c0.021-0.004,0.035-0.024,0.034-0.045v-0.9l0.688-1.373c0.012-0.021,0.02-0.044,0.025-0.067
	c0.004-0.013,0-0.028-0.01-0.037c-0.016-0.011-0.035-0.017-0.054-0.017"/>
<path class="st1" d="M235.355,32.845c-0.004-0.01-0.011-0.019-0.02-0.025c-0.008-0.005-0.018-0.007-0.027-0.007h-1.692
	c-0.021-0.001-0.041,0.011-0.048,0.031c-0.006,0.014-0.01,0.029-0.012,0.044c-0.002,0.021-0.002,0.042,0,0.063
	c-0.002,0.021-0.002,0.041,0,0.062c0.002,0.014,0.006,0.029,0.012,0.042c0.004,0.01,0.011,0.018,0.02,0.024
	c0.008,0.005,0.018,0.008,0.028,0.008h0.685v2.109c0,0.009,0.002,0.018,0.007,0.026c0.007,0.009,0.016,0.015,0.026,0.018
	c0.017,0.006,0.034,0.01,0.052,0.012c0.051,0.007,0.104,0.007,0.155,0c0.017-0.002,0.034-0.006,0.05-0.012
	c0.01-0.003,0.019-0.009,0.026-0.018c0.005-0.008,0.008-0.017,0.008-0.026v-2.108h0.685c0.01,0,0.019-0.003,0.027-0.008
	c0.009-0.006,0.016-0.014,0.02-0.024c0.007-0.013,0.011-0.027,0.013-0.042c0.001-0.021,0.001-0.041,0-0.062
	c0.001-0.021,0.001-0.042,0-0.063c-0.002-0.015-0.006-0.03-0.013-0.044"/>
<path class="st1" d="M239.96,34.399c-0.022,0.11-0.066,0.216-0.127,0.31c-0.058,0.09-0.138,0.164-0.232,0.214
	c-0.11,0.056-0.233,0.084-0.357,0.079c-0.123,0.004-0.245-0.021-0.356-0.073c-0.092-0.045-0.17-0.114-0.227-0.2
	c-0.059-0.095-0.1-0.201-0.12-0.311c-0.025-0.132-0.037-0.266-0.035-0.4c-0.001-0.124,0.012-0.248,0.038-0.369
	c0.023-0.11,0.066-0.214,0.128-0.307c0.059-0.088,0.139-0.16,0.232-0.211c0.109-0.056,0.231-0.083,0.353-0.079
	c0.121-0.004,0.242,0.021,0.352,0.073c0.092,0.046,0.171,0.115,0.228,0.2c0.06,0.094,0.101,0.199,0.122,0.308
	c0.025,0.127,0.038,0.256,0.037,0.385c0,0.126-0.012,0.251-0.037,0.374 M240.076,33.092c-0.091-0.104-0.205-0.185-0.333-0.236
	c-0.309-0.11-0.648-0.107-0.955,0.008c-0.134,0.057-0.252,0.144-0.347,0.254c-0.097,0.117-0.168,0.254-0.209,0.4
	c-0.048,0.17-0.071,0.346-0.069,0.523c-0.003,0.179,0.018,0.358,0.063,0.532c0.037,0.142,0.105,0.274,0.2,0.387
	c0.089,0.106,0.202,0.188,0.331,0.239c0.151,0.057,0.312,0.085,0.474,0.081c0.167,0.003,0.332-0.027,0.487-0.089
	c0.135-0.056,0.254-0.144,0.347-0.256c0.096-0.118,0.167-0.254,0.208-0.4c0.048-0.173,0.071-0.352,0.069-0.532
	c0.003-0.176-0.019-0.352-0.064-0.523c-0.038-0.141-0.107-0.272-0.2-0.385"/>
<path class="st1" d="M246.084,32.848c-0.013-0.012-0.028-0.021-0.044-0.026c-0.018-0.005-0.036-0.008-0.054-0.008h-0.208
	c-0.029,0-0.057,0.003-0.085,0.01c-0.024,0.008-0.046,0.019-0.066,0.035c-0.022,0.017-0.04,0.039-0.054,0.063
	c-0.019,0.031-0.035,0.065-0.046,0.1l-0.724,1.756h-0.01l-0.695-1.762c-0.01-0.031-0.024-0.061-0.041-0.089
	c-0.015-0.024-0.034-0.045-0.057-0.062c-0.024-0.017-0.051-0.029-0.08-0.035c-0.035-0.008-0.07-0.012-0.106-0.012h-0.2
	c-0.034,0-0.068,0.012-0.094,0.034c-0.03,0.029-0.045,0.071-0.041,0.113v2.237c0,0.009,0.002,0.018,0.006,0.026
	c0.006,0.009,0.015,0.015,0.025,0.018c0.016,0.006,0.033,0.01,0.05,0.012c0.025,0.004,0.051,0.005,0.077,0.005
	s0.053-0.001,0.079-0.005c0.017-0.002,0.034-0.006,0.051-0.012c0.011-0.003,0.02-0.009,0.027-0.018
	c0.005-0.008,0.008-0.017,0.008-0.026v-2.124l0,0l0.82,2.129c0.003,0.008,0.008,0.014,0.014,0.02
	c0.008,0.007,0.018,0.012,0.029,0.015c0.015,0.005,0.031,0.009,0.047,0.011c0.023,0.001,0.045,0.001,0.068,0h0.065
	c0.016-0.002,0.032-0.005,0.047-0.01c0.011-0.003,0.021-0.009,0.03-0.017c0.007-0.006,0.012-0.013,0.016-0.021l0.858-2.129l0,0
	v2.119c0,0.009,0.002,0.018,0.007,0.026c0.007,0.008,0.016,0.015,0.026,0.018c0.017,0.006,0.034,0.01,0.051,0.012
	c0.051,0.007,0.104,0.007,0.155,0c0.017-0.002,0.034-0.006,0.05-0.012c0.011-0.003,0.02-0.009,0.027-0.018
	c0.005-0.008,0.008-0.017,0.008-0.026V32.96c0.001-0.023-0.004-0.046-0.012-0.068c-0.007-0.017-0.017-0.032-0.03-0.045"/>
<path class="st1" d="M251.057,34.399c-0.022,0.11-0.064,0.216-0.126,0.31c-0.058,0.09-0.138,0.164-0.232,0.214
	c-0.11,0.056-0.233,0.083-0.357,0.079c-0.123,0.004-0.245-0.021-0.357-0.073c-0.092-0.046-0.17-0.115-0.226-0.2
	c-0.06-0.095-0.101-0.201-0.121-0.311c-0.025-0.132-0.037-0.266-0.036-0.4c0-0.124,0.013-0.248,0.039-0.369
	c0.023-0.11,0.066-0.214,0.128-0.307c0.06-0.088,0.139-0.16,0.232-0.211c0.109-0.056,0.231-0.083,0.353-0.079
	c0.121-0.004,0.242,0.021,0.352,0.073c0.092,0.046,0.171,0.115,0.228,0.2c0.06,0.094,0.102,0.198,0.123,0.308
	c0.025,0.127,0.037,0.256,0.036,0.385c0,0.126-0.012,0.251-0.037,0.374 M251.174,33.092c-0.091-0.104-0.205-0.185-0.333-0.236
	c-0.309-0.11-0.648-0.107-0.955,0.008c-0.134,0.057-0.253,0.144-0.348,0.254c-0.096,0.118-0.167,0.254-0.208,0.4
	c-0.048,0.17-0.072,0.346-0.069,0.523c-0.003,0.179,0.018,0.358,0.063,0.532c0.036,0.142,0.102,0.274,0.194,0.387
	c0.089,0.106,0.203,0.188,0.331,0.239c0.152,0.057,0.313,0.085,0.475,0.081c0.167,0.003,0.332-0.027,0.487-0.089
	c0.134-0.056,0.253-0.144,0.346-0.256c0.096-0.118,0.167-0.254,0.209-0.4c0.089-0.346,0.089-0.71,0-1.056
	c-0.038-0.141-0.107-0.272-0.2-0.385"/>
<path class="st1" d="M255.437,33.869c-0.072,0.022-0.146,0.033-0.221,0.031h-0.317v-0.82h0.273c0.064,0,0.116,0,0.156,0.006
	c0.036,0.003,0.071,0.009,0.106,0.019c0.087,0.019,0.163,0.07,0.215,0.142c0.044,0.073,0.067,0.157,0.064,0.242
	c0.001,0.056-0.009,0.111-0.03,0.163c-0.019,0.05-0.05,0.095-0.09,0.131c-0.045,0.039-0.098,0.069-0.155,0.086 M256.159,35.061
	l-0.219-0.538c-0.025-0.062-0.05-0.117-0.074-0.166c-0.023-0.045-0.05-0.088-0.08-0.129c-0.026-0.037-0.057-0.07-0.091-0.1
	c-0.033-0.027-0.07-0.049-0.109-0.067c0.068-0.023,0.133-0.054,0.194-0.091c0.055-0.035,0.105-0.079,0.148-0.129
	c0.045-0.05,0.079-0.109,0.1-0.172c0.023-0.071,0.033-0.145,0.032-0.219c0.001-0.078-0.011-0.156-0.035-0.231
	c-0.024-0.068-0.062-0.131-0.111-0.185c-0.051-0.056-0.113-0.101-0.181-0.134c-0.079-0.037-0.163-0.063-0.249-0.077l-0.11-0.01
	c-0.041,0-0.092,0-0.153,0h-0.517c-0.03,0-0.059,0.01-0.083,0.029c-0.027,0.026-0.041,0.063-0.038,0.1v2.252
	c-0.001,0.009,0.002,0.019,0.008,0.026c0.006,0.009,0.015,0.015,0.025,0.018c0.016,0.006,0.033,0.01,0.05,0.012
	c0.052,0.007,0.104,0.007,0.156,0c0.016-0.002,0.033-0.006,0.048-0.012c0.011-0.003,0.02-0.009,0.027-0.018
	c0.005-0.008,0.008-0.017,0.008-0.026v-1.032h0.217c0.064-0.002,0.129,0.009,0.189,0.032c0.051,0.021,0.098,0.052,0.137,0.092
	c0.04,0.042,0.074,0.089,0.1,0.141c0.028,0.055,0.055,0.114,0.082,0.18l0.223,0.573c0.004,0.013,0.011,0.026,0.019,0.037
	c0.007,0.011,0.017,0.019,0.029,0.024c0.016,0.007,0.033,0.012,0.05,0.013c0.027,0.002,0.053,0.002,0.08,0
	c0.03,0.002,0.06,0.002,0.09,0c0.018-0.001,0.036-0.005,0.053-0.012c0.01-0.003,0.019-0.01,0.025-0.019
	c0.004-0.008,0.005-0.017,0.005-0.026c-0.001-0.014-0.004-0.028-0.008-0.041c-0.01-0.034-0.021-0.067-0.034-0.1"/>
<path class="st1" d="M260.123,33.869c-0.071,0.022-0.146,0.033-0.221,0.031h-0.316v-0.82h0.272c0.064,0,0.116,0,0.155,0.006
	c0.036,0.003,0.071,0.009,0.106,0.019c0.087,0.019,0.163,0.07,0.215,0.142c0.045,0.072,0.068,0.157,0.065,0.242
	c0,0.056-0.01,0.111-0.03,0.163c-0.019,0.05-0.051,0.095-0.091,0.131c-0.045,0.039-0.099,0.069-0.156,0.086 M260.843,35.061
	l-0.217-0.538c-0.025-0.062-0.05-0.117-0.074-0.166c-0.023-0.045-0.05-0.088-0.08-0.129c-0.026-0.037-0.057-0.07-0.091-0.1
	c-0.033-0.027-0.07-0.049-0.109-0.067c0.068-0.023,0.133-0.054,0.194-0.091c0.056-0.035,0.106-0.079,0.149-0.129
	c0.044-0.051,0.078-0.109,0.1-0.172c0.022-0.071,0.033-0.145,0.032-0.219c0.001-0.078-0.011-0.157-0.036-0.231
	c-0.024-0.068-0.062-0.131-0.111-0.185c-0.051-0.056-0.113-0.101-0.181-0.134c-0.079-0.037-0.163-0.063-0.249-0.077l-0.11-0.01
	c-0.041,0-0.092,0-0.153,0h-0.517c-0.03,0-0.059,0.01-0.082,0.029c-0.027,0.026-0.042,0.063-0.038,0.1v2.252
	c0,0.009,0.003,0.018,0.008,0.026c0.006,0.009,0.015,0.015,0.025,0.018c0.016,0.006,0.033,0.01,0.05,0.012
	c0.026,0.004,0.053,0.005,0.079,0.005s0.052-0.001,0.078-0.005c0.017-0.002,0.033-0.006,0.049-0.012
	c0.01-0.003,0.019-0.009,0.026-0.018c0.006-0.007,0.009-0.017,0.008-0.026v-1.032h0.216c0.065-0.002,0.129,0.009,0.19,0.032
	c0.051,0.021,0.098,0.053,0.137,0.092c0.04,0.042,0.074,0.089,0.1,0.141c0.028,0.055,0.056,0.114,0.082,0.18l0.224,0.573
	c0.004,0.013,0.01,0.026,0.018,0.037c0.007,0.011,0.017,0.019,0.029,0.024c0.016,0.007,0.033,0.012,0.05,0.013
	c0.027,0.002,0.053,0.002,0.08,0c0.03,0.002,0.06,0.002,0.09,0c0.018-0.001,0.036-0.005,0.053-0.012
	c0.01-0.003,0.019-0.01,0.025-0.019c0.004-0.008,0.006-0.017,0.006-0.026c-0.001-0.014-0.004-0.028-0.008-0.041
	c-0.006-0.019-0.016-0.051-0.035-0.1"/>
<path class="st1" d="M265.605,34.399c-0.022,0.11-0.065,0.216-0.126,0.31c-0.058,0.09-0.139,0.163-0.233,0.214
	c-0.11,0.056-0.233,0.084-0.357,0.079c-0.123,0.004-0.245-0.021-0.356-0.073c-0.092-0.045-0.17-0.114-0.227-0.2
	c-0.059-0.095-0.1-0.201-0.12-0.311c-0.025-0.132-0.036-0.266-0.035-0.4c-0.001-0.124,0.012-0.248,0.038-0.369
	c0.023-0.11,0.066-0.214,0.128-0.307c0.059-0.088,0.139-0.16,0.232-0.211c0.109-0.056,0.231-0.083,0.353-0.079
	c0.121-0.004,0.242,0.021,0.352,0.073c0.092,0.046,0.171,0.115,0.228,0.2c0.06,0.094,0.102,0.198,0.122,0.308
	c0.025,0.127,0.038,0.256,0.037,0.385c0,0.126-0.012,0.251-0.037,0.374 M265.721,33.092c-0.09-0.104-0.204-0.185-0.332-0.236
	c-0.15-0.056-0.308-0.083-0.468-0.08c-0.167-0.003-0.333,0.027-0.488,0.089c-0.134,0.057-0.252,0.144-0.347,0.254
	c-0.097,0.117-0.168,0.254-0.209,0.4c-0.048,0.17-0.071,0.346-0.069,0.523c-0.003,0.179,0.018,0.358,0.063,0.532
	c0.037,0.142,0.106,0.274,0.2,0.387c0.089,0.106,0.203,0.188,0.331,0.239c0.151,0.057,0.312,0.085,0.474,0.081
	c0.167,0.003,0.333-0.027,0.488-0.089c0.134-0.056,0.253-0.144,0.346-0.256c0.096-0.118,0.167-0.254,0.208-0.4
	c0.048-0.173,0.071-0.352,0.069-0.532c0.003-0.176-0.019-0.352-0.064-0.523c-0.038-0.141-0.107-0.272-0.2-0.385"/>
<path class="st1" d="M272.035,32.825c-0.013-0.011-0.03-0.017-0.047-0.018c-0.03-0.004-0.06-0.006-0.09-0.005
	c-0.029-0.002-0.059-0.002-0.088,0c-0.017,0.001-0.034,0.005-0.05,0.011c-0.011,0.003-0.02,0.011-0.024,0.021l-0.011,0.033
	l-0.536,2.037h-0.005l-0.558-2.035c-0.003-0.012-0.008-0.024-0.014-0.035c-0.007-0.01-0.016-0.017-0.027-0.021
	c-0.016-0.006-0.032-0.01-0.049-0.011c-0.028-0.002-0.057-0.002-0.085,0c-0.03-0.002-0.061-0.002-0.091,0
	c-0.018,0.001-0.036,0.005-0.053,0.011c-0.011,0.004-0.021,0.011-0.028,0.021c-0.006,0.011-0.011,0.023-0.014,0.035l-0.519,2.035
	l0,0l-0.547-2.039c-0.002-0.011-0.005-0.023-0.01-0.033c-0.006-0.01-0.015-0.017-0.025-0.021c-0.017-0.006-0.034-0.009-0.052-0.01
	c-0.023,0-0.052,0-0.091,0c-0.033-0.002-0.067-0.002-0.1,0c-0.019,0-0.037,0.006-0.052,0.017c-0.011,0.009-0.016,0.023-0.014,0.037
	c0.001,0.023,0.005,0.046,0.012,0.068l0.643,2.247c0.003,0.015,0.01,0.03,0.02,0.042c0.01,0.012,0.024,0.021,0.04,0.025
	c0.022,0.007,0.045,0.011,0.068,0.012c0.027,0,0.062,0,0.1,0s0.074,0,0.1,0c0.021-0.002,0.043-0.006,0.063-0.012
	c0.015-0.004,0.028-0.013,0.037-0.025c0.01-0.012,0.016-0.027,0.019-0.042l0.47-1.837l0,0l0.51,1.837
	c0.003,0.015,0.01,0.03,0.02,0.042c0.01,0.012,0.024,0.021,0.039,0.025c0.022,0.006,0.044,0.01,0.067,0.012c0.027,0,0.06,0,0.1,0
	s0.069,0,0.1,0c0.022-0.002,0.043-0.006,0.064-0.012c0.016-0.004,0.03-0.013,0.041-0.025s0.019-0.026,0.023-0.042l0.645-2.246
	c0.005-0.022,0.008-0.045,0.01-0.068c0.002-0.014-0.004-0.028-0.014-0.037"/>
<g>
	<path class="st1" d="M194.354,10.48h-0.52V5.008c0.154-0.053,0.352-0.104,0.592-0.151c0.24-0.049,0.544-0.072,0.912-0.072
		c0.304,0,0.58,0.049,0.828,0.147s0.461,0.242,0.64,0.429s0.317,0.413,0.416,0.68s0.148,0.568,0.148,0.904
		c0,0.314-0.042,0.604-0.124,0.867c-0.083,0.265-0.204,0.491-0.364,0.681s-0.356,0.337-0.588,0.443
		c-0.232,0.107-0.498,0.16-0.796,0.16c-0.272,0-0.508-0.038-0.708-0.115c-0.2-0.078-0.346-0.151-0.437-0.221L194.354,10.48
		L194.354,10.48z M194.354,8.256c0.048,0.037,0.108,0.077,0.181,0.12c0.071,0.043,0.155,0.083,0.252,0.12
		c0.096,0.037,0.199,0.068,0.312,0.092c0.112,0.024,0.229,0.036,0.353,0.036c0.256,0,0.47-0.044,0.644-0.132
		c0.173-0.088,0.313-0.208,0.42-0.36c0.106-0.151,0.184-0.33,0.232-0.536c0.048-0.205,0.071-0.422,0.071-0.651
		c0-0.544-0.136-0.962-0.407-1.252c-0.272-0.291-0.633-0.437-1.08-0.437c-0.256,0-0.463,0.012-0.62,0.036s-0.276,0.05-0.356,0.076
		v2.888H194.354z"/>
</g>
<g>
	<path class="st1" d="M202.025,6.936c0,0.326-0.046,0.622-0.14,0.889s-0.224,0.493-0.392,0.68s-0.367,0.332-0.597,0.437
		c-0.229,0.104-0.482,0.155-0.76,0.155s-0.53-0.052-0.76-0.155c-0.229-0.104-0.428-0.25-0.596-0.437s-0.299-0.413-0.393-0.68
		c-0.093-0.267-0.14-0.562-0.14-0.889c0-0.325,0.047-0.621,0.14-0.888c0.094-0.267,0.225-0.494,0.393-0.684s0.366-0.336,0.596-0.44
		c0.229-0.104,0.482-0.156,0.76-0.156s0.53,0.053,0.76,0.156c0.229,0.104,0.429,0.251,0.597,0.44s0.298,0.417,0.392,0.684
		S202.025,6.61,202.025,6.936z M201.474,6.936c0-0.517-0.12-0.929-0.359-1.235c-0.24-0.307-0.565-0.46-0.977-0.46
		c-0.41,0-0.736,0.153-0.976,0.46s-0.36,0.719-0.36,1.235c0,0.518,0.12,0.929,0.36,1.232c0.239,0.304,0.565,0.456,0.976,0.456
		s0.736-0.152,0.977-0.456C201.354,7.864,201.474,7.453,201.474,6.936z"/>
</g>
<g>
	<path class="st1" d="M205.822,4.864c0.048,0.267,0.11,0.55,0.188,0.852c0.077,0.301,0.162,0.607,0.255,0.92
		c0.093,0.312,0.191,0.62,0.296,0.924s0.21,0.59,0.317,0.856c0.091-0.202,0.187-0.449,0.289-0.739s0.203-0.597,0.305-0.919
		s0.196-0.647,0.285-0.977c0.088-0.328,0.161-0.634,0.221-0.917h0.512c-0.192,0.812-0.402,1.554-0.63,2.226
		c-0.228,0.671-0.478,1.308-0.751,1.91h-0.481c-0.081-0.188-0.166-0.398-0.255-0.63s-0.18-0.48-0.273-0.744
		c-0.095-0.264-0.186-0.54-0.273-0.831c-0.088-0.29-0.172-0.587-0.252-0.891c-0.079,0.305-0.163,0.602-0.251,0.893
		c-0.087,0.291-0.178,0.569-0.271,0.833s-0.185,0.512-0.272,0.744c-0.089,0.231-0.173,0.44-0.252,0.626h-0.5
		c-0.273-0.603-0.523-1.239-0.75-1.911c-0.227-0.673-0.436-1.414-0.627-2.225h0.552c0.06,0.282,0.133,0.588,0.222,0.915
		c0.088,0.328,0.183,0.653,0.285,0.977c0.102,0.322,0.204,0.627,0.309,0.916c0.104,0.288,0.202,0.533,0.293,0.736
		c0.103-0.266,0.204-0.551,0.308-0.855c0.102-0.305,0.198-0.611,0.289-0.921c0.09-0.31,0.175-0.614,0.254-0.916
		c0.08-0.302,0.151-0.586,0.215-0.852C205.379,4.864,205.822,4.864,205.822,4.864z"/>
</g>
<g>
	<path class="st1" d="M209.106,6.928c0-0.362,0.052-0.679,0.156-0.947c0.104-0.27,0.239-0.495,0.407-0.677
		c0.168-0.181,0.36-0.315,0.576-0.403c0.216-0.089,0.438-0.133,0.668-0.133c0.507,0,0.911,0.166,1.212,0.496
		c0.302,0.331,0.452,0.84,0.452,1.528c0,0.043-0.001,0.085-0.004,0.128s-0.007,0.083-0.012,0.12h-2.904
		c0.016,0.507,0.142,0.896,0.376,1.168c0.234,0.272,0.608,0.408,1.12,0.408c0.282,0,0.507-0.026,0.672-0.08s0.285-0.099,0.36-0.136
		l0.096,0.447c-0.075,0.043-0.215,0.094-0.42,0.152s-0.447,0.088-0.724,0.088c-0.363,0-0.673-0.054-0.929-0.16
		s-0.467-0.256-0.632-0.447c-0.165-0.192-0.285-0.421-0.36-0.685C209.143,7.532,209.106,7.243,209.106,6.928z M212.041,6.6
		c-0.011-0.432-0.111-0.768-0.304-1.008s-0.464-0.359-0.816-0.359c-0.187,0-0.353,0.037-0.5,0.111
		c-0.146,0.075-0.274,0.175-0.384,0.3c-0.109,0.126-0.194,0.271-0.256,0.437s-0.098,0.339-0.108,0.52L212.041,6.6L212.041,6.6z"/>
</g>
<g>
	<path class="st1" d="M215.146,4.784c0.171,0,0.332,0.014,0.484,0.04c0.151,0.026,0.257,0.053,0.315,0.08l-0.104,0.447
		c-0.043-0.021-0.13-0.044-0.26-0.067c-0.131-0.024-0.303-0.036-0.517-0.036c-0.224,0-0.404,0.016-0.54,0.048
		s-0.226,0.059-0.268,0.08V9h-0.521V5.056c0.134-0.059,0.317-0.118,0.553-0.18C214.524,4.814,214.81,4.784,215.146,4.784z"/>
</g>
<g>
	<path class="st1" d="M216.482,6.928c0-0.362,0.052-0.679,0.156-0.947c0.104-0.27,0.239-0.495,0.407-0.677
		c0.168-0.181,0.36-0.315,0.576-0.403c0.216-0.089,0.438-0.133,0.668-0.133c0.507,0,0.911,0.166,1.212,0.496
		c0.302,0.331,0.452,0.84,0.452,1.528c0,0.043-0.001,0.085-0.004,0.128s-0.007,0.083-0.012,0.12h-2.904
		c0.016,0.507,0.142,0.896,0.376,1.168c0.234,0.272,0.608,0.408,1.12,0.408c0.282,0,0.507-0.026,0.672-0.08s0.285-0.099,0.36-0.136
		l0.096,0.447c-0.075,0.043-0.215,0.094-0.42,0.152s-0.447,0.088-0.724,0.088c-0.363,0-0.673-0.054-0.929-0.16
		s-0.467-0.256-0.632-0.447c-0.165-0.192-0.285-0.421-0.36-0.685C216.519,7.532,216.482,7.243,216.482,6.928z M219.417,6.6
		c-0.011-0.432-0.111-0.768-0.304-1.008s-0.464-0.359-0.816-0.359c-0.187,0-0.353,0.037-0.5,0.111
		c-0.146,0.075-0.274,0.175-0.384,0.3c-0.109,0.126-0.194,0.271-0.256,0.437s-0.098,0.339-0.108,0.52L219.417,6.6L219.417,6.6z"/>
</g>
<g>
	<path class="st1" d="M224.401,8.872c-0.155,0.054-0.353,0.104-0.593,0.152c-0.239,0.048-0.544,0.071-0.911,0.071
		c-0.305,0-0.58-0.049-0.828-0.147s-0.462-0.241-0.641-0.429c-0.179-0.187-0.317-0.413-0.416-0.68s-0.147-0.567-0.147-0.904
		c0-0.314,0.041-0.604,0.124-0.867c0.082-0.265,0.204-0.492,0.364-0.685c0.159-0.191,0.355-0.341,0.588-0.448
		c0.231-0.106,0.497-0.159,0.796-0.159c0.271,0,0.508,0.038,0.708,0.115c0.2,0.078,0.345,0.151,0.436,0.221V2.888l0.521-0.096
		L224.401,8.872L224.401,8.872z M223.881,5.616c-0.048-0.037-0.107-0.077-0.18-0.12s-0.156-0.083-0.252-0.12s-0.2-0.068-0.312-0.092
		c-0.111-0.024-0.229-0.036-0.352-0.036c-0.256,0-0.471,0.045-0.645,0.136c-0.173,0.091-0.312,0.212-0.42,0.364
		c-0.106,0.152-0.184,0.331-0.231,0.536s-0.072,0.423-0.072,0.651c0,0.545,0.136,0.962,0.408,1.253
		c0.271,0.29,0.632,0.436,1.08,0.436c0.256,0,0.462-0.012,0.62-0.036c0.157-0.023,0.275-0.049,0.355-0.076V5.616H223.881z"/>
</g>
<g>
	<path class="st1" d="M228.121,5.112c0.091-0.069,0.236-0.143,0.437-0.221c0.2-0.077,0.436-0.115,0.708-0.115
		c0.298,0,0.563,0.053,0.796,0.159c0.231,0.107,0.428,0.257,0.588,0.448c0.16,0.192,0.281,0.42,0.364,0.685
		c0.082,0.264,0.124,0.553,0.124,0.867c0,0.337-0.05,0.638-0.148,0.904s-0.237,0.493-0.416,0.68c-0.179,0.188-0.392,0.33-0.64,0.429
		s-0.524,0.147-0.828,0.147c-0.368,0-0.672-0.023-0.912-0.071c-0.24-0.049-0.438-0.099-0.592-0.152V2.888l0.52-0.096L228.121,5.112
		L228.121,5.112z M228.121,8.512c0.08,0.027,0.199,0.053,0.356,0.076c0.157,0.024,0.364,0.036,0.62,0.036
		c0.447,0,0.808-0.146,1.08-0.436c0.271-0.291,0.407-0.708,0.407-1.253c0-0.229-0.023-0.446-0.071-0.651
		c-0.049-0.205-0.126-0.384-0.232-0.536s-0.247-0.273-0.42-0.364c-0.174-0.091-0.388-0.136-0.644-0.136
		c-0.123,0-0.24,0.012-0.353,0.036c-0.112,0.023-0.216,0.055-0.312,0.092c-0.097,0.037-0.181,0.077-0.252,0.12
		c-0.072,0.043-0.133,0.083-0.181,0.12v2.896H228.121z"/>
</g>
<g>
	<path class="st1" d="M233.394,9.088c-0.174-0.326-0.343-0.665-0.506-1.017s-0.315-0.708-0.458-1.067
		c-0.142-0.36-0.271-0.72-0.389-1.08c-0.118-0.359-0.219-0.713-0.304-1.06h0.552c0.059,0.256,0.134,0.532,0.224,0.828
		c0.091,0.296,0.193,0.602,0.308,0.916c0.115,0.314,0.241,0.638,0.38,0.968c0.139,0.331,0.289,0.656,0.453,0.976
		c0.119-0.329,0.224-0.641,0.315-0.934s0.177-0.585,0.255-0.875c0.078-0.291,0.153-0.588,0.227-0.892
		c0.072-0.304,0.146-0.633,0.223-0.987h0.521c-0.174,0.773-0.369,1.526-0.586,2.258c-0.216,0.731-0.453,1.4-0.709,2.006
		c-0.102,0.24-0.206,0.446-0.312,0.62c-0.107,0.173-0.227,0.316-0.357,0.428c-0.132,0.112-0.284,0.195-0.458,0.248
		c-0.175,0.054-0.379,0.08-0.614,0.08c-0.135,0-0.257-0.016-0.366-0.048s-0.178-0.056-0.205-0.072l0.104-0.432
		c0.021,0.016,0.081,0.038,0.181,0.067c0.099,0.029,0.201,0.045,0.309,0.045c0.149,0,0.284-0.017,0.405-0.049
		c0.12-0.031,0.229-0.086,0.324-0.164c0.097-0.077,0.184-0.177,0.261-0.3C233.246,9.43,233.321,9.274,233.394,9.088z"/>
</g>
<g>
	<path class="st1" d="M24.311,15.223v10.684c0,1.669-1.383,3.053-3.053,3.053c-1.669,0-3.053-1.383-3.053-3.053V15.223
		c0-2.528-2.051-4.579-4.579-4.579c-2.528,0-4.579,2.051-4.579,4.579v10.684c0,1.669-1.383,3.053-3.053,3.053
		c-1.669,0-3.053-1.383-3.053-3.053V15.223c0-5.914,4.77-10.684,10.684-10.684c3.005,0,5.724,1.192,7.631,3.196
		c1.956-2.003,4.627-3.196,7.631-3.196c5.915,0,10.684,4.77,10.684,10.684v10.684c0,1.669-1.383,3.053-3.053,3.053
		c-1.669,0-3.053-1.383-3.053-3.053V15.223c0-2.528-2.051-4.579-4.579-4.579C26.362,10.644,24.311,12.695,24.311,15.223z"/>
	<path class="st1" d="M68.1,4.892c-1.475-0.782-3.345-0.208-4.127,1.267l-6.37,12.089L51.043,6.16
		c-0.782-1.475-2.652-2.049-4.127-1.267c-1.475,0.782-2.049,2.652-1.267,4.127l8.532,15.723L48.475,35.57
		c-0.782,1.475-0.208,3.345,1.267,4.127c1.475,0.782,3.345,0.208,4.127-1.267L69.368,9.019C70.15,7.544,69.575,5.674,68.1,4.892z"/>
	<g>
		<g>
			<path class="st1" d="M81.405,29.115c-0.665,0-1.328-0.021-1.987-0.061c-0.66-0.041-1.345-0.137-2.057-0.288V17.002
				c0.561-0.105,1.173-0.184,1.838-0.236c0.665-0.053,1.283-0.079,1.855-0.079c0.77,0,1.479,0.056,2.127,0.167
				c0.647,0.111,1.204,0.301,1.672,0.568c0.467,0.269,0.831,0.622,1.094,1.059c0.262,0.438,0.394,0.978,0.394,1.62
				c0,0.969-0.467,1.733-1.401,2.293c0.771,0.292,1.296,0.689,1.575,1.19c0.281,0.502,0.42,1.068,0.42,1.698
				c0,1.272-0.464,2.229-1.392,2.871C84.617,28.794,83.237,29.115,81.405,29.115z M80.022,21.588h1.33
				c0.84,0,1.442-0.108,1.803-0.324c0.361-0.216,0.543-0.563,0.543-1.041c0-0.491-0.187-0.835-0.561-1.033
				c-0.373-0.199-0.922-0.298-1.645-0.298c-0.234,0-0.484,0.003-0.753,0.009c-0.268,0.006-0.507,0.021-0.717,0.044L80.022,21.588
				L80.022,21.588z M80.022,23.671v3.133c0.198,0.023,0.414,0.041,0.647,0.053c0.233,0.011,0.49,0.017,0.77,0.017
				c0.817,0,1.477-0.116,1.978-0.35c0.502-0.234,0.753-0.665,0.753-1.296c0-0.56-0.21-0.959-0.63-1.199
				c-0.42-0.239-1.021-0.359-1.803-0.359L80.022,23.671L80.022,23.671z"/>
			<path class="st1" d="M90.22,28.957v-12.13h8.192v2.293H92.95v2.381h4.848v2.24H92.95v2.924h5.864v2.293H90.22z"/>
			<path class="st1" d="M110.215,28.957c-0.782-1.389-1.628-2.76-2.538-4.113c-0.91-1.354-1.879-2.632-2.905-3.834v7.947h-2.696
				v-12.13h2.223c0.385,0.385,0.811,0.858,1.278,1.417c0.467,0.561,0.942,1.159,1.427,1.795c0.484,0.636,0.966,1.295,1.444,1.978
				c0.478,0.682,0.927,1.339,1.348,1.969v-7.159h2.713v12.13H110.215z"/>
			<path class="st1" d="M116.411,28.957v-12.13h8.192v2.293h-5.462v2.381h4.848v2.24h-4.848v2.924h5.864v2.293H116.411z"/>
			<path class="st1" d="M128.267,28.957v-12.13h8.122v2.293h-5.391v2.538h4.796v2.293h-4.796v5.006H128.267z"/>
			<path class="st1" d="M139.376,16.827h2.731v12.13h-2.731V16.827z"/>
			<path class="st1" d="M154.943,16.827v2.328h-3.658v9.803h-2.731v-9.803h-3.658v-2.328H154.943z"/>
			<path class="st1" d="M161.29,26.874c0.385,0,0.703-0.031,0.954-0.096c0.251-0.064,0.452-0.151,0.604-0.262
				c0.152-0.111,0.256-0.242,0.316-0.394c0.058-0.152,0.087-0.321,0.087-0.508c0-0.397-0.187-0.726-0.56-0.989
				c-0.374-0.262-1.015-0.545-1.925-0.848c-0.397-0.14-0.794-0.301-1.191-0.481c-0.397-0.181-0.752-0.409-1.068-0.683
				c-0.315-0.274-0.572-0.607-0.77-0.998c-0.199-0.39-0.298-0.866-0.298-1.427c0-0.56,0.105-1.064,0.316-1.514
				c0.21-0.449,0.507-0.832,0.892-1.147c0.385-0.315,0.852-0.557,1.4-0.726c0.548-0.169,1.167-0.254,1.855-0.254
				c0.817,0,1.523,0.087,2.118,0.262c0.595,0.175,1.085,0.368,1.47,0.578l-0.788,2.153c-0.338-0.175-0.715-0.33-1.129-0.464
				c-0.414-0.134-0.913-0.202-1.496-0.202c-0.654,0-1.123,0.09-1.41,0.271c-0.286,0.181-0.429,0.458-0.429,0.832
				c0,0.222,0.053,0.408,0.158,0.56c0.105,0.152,0.254,0.288,0.446,0.411c0.193,0.123,0.414,0.234,0.665,0.333
				c0.251,0.1,0.528,0.202,0.832,0.307c0.63,0.233,1.178,0.464,1.645,0.691c0.467,0.228,0.855,0.494,1.164,0.796
				c0.309,0.304,0.54,0.66,0.692,1.068c0.151,0.408,0.227,0.904,0.227,1.488c0,1.132-0.397,2.01-1.19,2.634
				c-0.793,0.625-1.99,0.937-3.588,0.937c-0.537,0-1.021-0.032-1.453-0.096c-0.432-0.064-0.814-0.143-1.147-0.236
				c-0.333-0.093-0.618-0.192-0.858-0.298c-0.239-0.105-0.44-0.204-0.604-0.297l0.771-2.171c0.361,0.199,0.808,0.376,1.339,0.534
				C159.869,26.795,160.52,26.874,161.29,26.874z"/>
		</g>
	</g>
</g>
</svg>
