<?xml version="1.0" encoding="utf-8"?>
<!-- Generator: Adobe Illustrator 26.3.1, SVG Export Plug-In . SVG Version: 6.00 Build 0)  -->
<svg version="1.1" id="Livello_1" xmlns="http://www.w3.org/2000/svg" xmlns:xlink="http://www.w3.org/1999/xlink" x="0px" y="0px"
	 viewBox="0 0 2000 450" style="enable-background:new 0 0 2000 450;" xml:space="preserve">
<style type="text/css">
	.st0{fill:#FFFFFF;}
</style>
<g>
	<path class="st0" d="M269.364,139.186v129.681c0,20.262-16.791,37.052-37.052,37.052s-37.052-16.79-37.052-37.052V139.186
		c0-30.687-24.891-55.578-55.578-55.578c-30.68,0-55.577,24.891-55.577,55.578v129.681c0,20.262-16.791,37.052-37.052,37.052
		C26.79,305.92,10,289.13,10,268.867V139.186C10,67.4,67.896,9.504,139.681,9.504c36.476,0,69.474,14.472,92.63,38.787
		c23.739-24.315,56.161-38.787,92.63-38.787c71.792,0,129.681,57.896,129.681,129.682v129.681c0,20.262-16.79,37.052-37.052,37.052
		c-20.261,0-37.051-16.79-37.051-37.052V139.186c0-30.687-24.892-55.578-55.578-55.578
		C294.261,83.608,269.364,108.499,269.364,139.186z"/>
	<path class="st0" d="M800.873,13.792c-17.901-9.49-40.599-2.519-50.089,15.382L673.46,175.903L593.836,29.174
		c-9.49-17.901-32.189-24.872-50.09-15.382c-17.902,9.49-24.873,32.188-15.382,50.09l103.561,190.839L562.66,386.159
		c-9.49,17.902-2.52,40.601,15.382,50.09c17.901,9.491,40.601,2.52,50.09-15.382L816.256,63.882
		C825.745,45.98,818.775,23.282,800.873,13.792z"/>
	<g>
		<g>
			<path class="st0" d="M962.361,307.799c-8.075,0-16.115-0.251-24.112-0.743c-8.005-0.493-16.331-1.66-24.967-3.501V160.778
				c6.804-1.279,14.239-2.23,22.313-2.87c8.066-0.64,15.579-0.96,22.521-0.96c9.345,0,17.947,0.674,25.815,2.023
				c7.859,1.349,14.619,3.648,20.29,6.899c5.663,3.268,10.089,7.547,13.279,12.855c3.181,5.317,4.781,11.87,4.781,19.659
				c0,11.757-5.671,21.034-17.005,27.829c9.354,3.545,15.726,8.36,19.123,14.446c3.406,6.095,5.101,12.959,5.101,20.61
				c0,15.44-5.628,27.06-16.893,34.849C1001.351,303.908,984.596,307.799,962.361,307.799z M945.58,216.445h16.141
				c10.201,0,17.498-1.314,21.89-3.934c4.383-2.619,6.588-6.83,6.588-12.639c0-5.957-2.274-10.132-6.804-12.536
				c-4.53-2.412-11.187-3.614-19.97-3.614c-2.836,0-5.879,0.035-9.138,0.104c-3.259,0.078-6.155,0.251-8.706,0.536V216.445z
				 M945.58,241.723v38.03c2.403,0.285,5.023,0.501,7.859,0.64c2.827,0.138,5.948,0.207,9.345,0.207
				c9.916,0,17.922-1.409,24.008-4.245c6.095-2.836,9.138-8.075,9.138-15.726c0-6.795-2.55-11.645-7.651-14.55
				c-5.092-2.905-12.389-4.357-21.881-4.357H945.58z"/>
			<path class="st0" d="M1069.354,305.888V158.651h99.437v27.829H1102.5v28.901h58.848v27.189H1102.5v35.489h71.176v27.829H1069.354
				z"/>
			<path class="st0" d="M1312.051,305.888c-9.492-16.858-19.763-33.5-30.812-49.926c-11.049-16.435-22.806-31.944-35.264-46.537
				v96.463h-32.722V158.651h26.982c4.677,4.677,9.847,10.409,15.51,17.204c5.663,6.804,11.438,14.066,17.316,21.786
				c5.879,7.72,11.723,15.717,17.532,24.008c5.801,8.282,11.256,16.253,16.357,23.895v-86.893h32.93v147.237H1312.051z"/>
			<path class="st0" d="M1387.264,305.888V158.651h99.437v27.829h-66.292v28.901h58.848v27.189h-58.848v35.489h71.176v27.829
				H1387.264z"/>
			<path class="st0" d="M1531.164,305.888V158.651h98.581v27.829h-65.436v30.812h58.217v27.829h-58.217v60.767H1531.164z"/>
			<path class="st0" d="M1666.012,158.651h33.146v147.237h-33.146V158.651z"/>
			<path class="st0" d="M1854.962,158.651v28.253h-44.402v118.984h-33.146V186.904h-44.402v-28.253H1854.962z"/>
			<path class="st0" d="M1931.999,280.601c4.677,0,8.533-0.38,11.576-1.167c3.043-0.778,5.49-1.833,7.331-3.181
				s3.112-2.939,3.83-4.781c0.7-1.841,1.055-3.899,1.055-6.164c0-4.815-2.265-8.818-6.795-12.008
				c-4.539-3.181-12.319-6.614-23.368-10.296c-4.824-1.703-9.639-3.648-14.455-5.844c-4.815-2.196-9.129-4.962-12.959-8.291
				c-3.821-3.328-6.942-7.366-9.345-12.112c-2.412-4.738-3.614-10.513-3.614-17.316c0-6.795,1.279-12.916,3.83-18.371
				c2.55-5.455,6.155-10.098,10.832-13.919s10.34-6.761,16.996-8.818c6.657-2.049,14.161-3.078,22.521-3.078
				c9.916,0,18.483,1.055,25.711,3.181c7.219,2.127,13.175,4.461,17.844,7.011l-9.562,26.134c-4.106-2.127-8.68-4.003-13.703-5.628
				c-5.031-1.625-11.083-2.447-18.164-2.447c-7.936,0-13.634,1.098-17.109,3.294c-3.467,2.196-5.204,5.559-5.204,10.098
				c0,2.689,0.64,4.954,1.919,6.795c1.271,1.841,3.078,3.501,5.412,4.988c2.343,1.496,5.031,2.836,8.075,4.037
				c3.043,1.21,6.406,2.447,10.098,3.726c7.642,2.827,14.299,5.628,19.97,8.386c5.663,2.766,10.374,5.991,14.126,9.665
				c3.752,3.691,6.553,8.005,8.395,12.968c1.833,4.954,2.758,10.971,2.758,18.06c0,13.737-4.815,24.397-14.446,31.97
				c-9.631,7.582-24.155,11.368-43.555,11.368c-6.519,0-12.397-0.389-17.636-1.167c-5.239-0.778-9.881-1.738-13.919-2.87
				c-4.037-1.133-7.504-2.334-10.409-3.614c-2.905-1.271-5.343-2.473-7.331-3.605l9.354-26.351
				c4.383,2.412,9.804,4.565,16.253,6.484C1914.752,279.65,1922.654,280.601,1931.999,280.601z"/>
		</g>
	</g>
</g>
</svg>
